<?xml version="1.0" encoding="UTF-8"?>
<svg width="40" height="40" viewBox="0 0 40 40" fill="none" xmlns="http://www.w3.org/2000/svg">
  <!-- Modern pin shape with drop shadow effect -->
  <path d="M20 4C13.3726 4 8 9.37258 8 16C8 22.6274 13.3726 28 20 28L20 36L24 30L20 28C26.6274 28 32 22.6274 32 16C32 9.37258 26.6274 4 20 4Z" fill="#4CAF50" fill-opacity="0.9"/>
  <path d="M20 4C13.3726 4 8 9.37258 8 16C8 22.6274 13.3726 28 20 28L20 36L24 30L20 28C26.6274 28 32 22.6274 32 16C32 9.37258 26.6274 4 20 4Z" fill="url(#paint0_linear)" fill-opacity="0.2"/>
  
  <!-- Inner circle -->
  <circle cx="20" cy="16" r="6" fill="white"/>
  
  <!-- Start icon (play button triangle) -->
  <path d="M18 13L24 16L18 19V13Z" fill="#4CAF50"/>
  
  <!-- Gradient definition -->
  <defs>
    <linearGradient id="paint0_linear" x1="20" y1="4" x2="20" y2="36" gradientUnits="userSpaceOnUse">
      <stop stop-color="white" stop-opacity="0.5"/>
      <stop offset="1" stop-color="#4CAF50" stop-opacity="0.5"/>
    </linearGradient>
  </defs>
</svg>
